<?xml version="1.0" encoding="iso-8859-1"?>
<!-- Generator: Adobe Illustrator 19.0.0, SVG Export Plug-In . SVG Version: 6.00 Build 0)  -->
<svg version="1.1" id="Layer_1" xmlns="http://www.w3.org/2000/svg" xmlns:xlink="http://www.w3.org/1999/xlink" x="0px" y="0px"
	 viewBox="0 0 512 512" style="enable-background:new 0 0 512 512;" xml:space="preserve" fill="#f05742">
<g>
	<g>
		<path d="M478.609,171.201v75.079H179.243c4.57-8.604,7.17-18.407,7.17-28.811c0-33.987-27.65-61.637-61.637-61.637h-63.14
			c-10.178,0-19.778,2.494-28.246,6.881v-49.9H0v104.655v28.811v32.826v87.092v32.99h33.391v-32.99h445.217v32.99H512v-32.99V246.28
			v-75.079H478.609z M33.391,217.469c0-15.575,12.671-28.246,28.246-28.246h63.141c15.575,0,28.246,12.671,28.246,28.246
			c0,15.575-12.671,28.246-28.246,28.246H33.391V217.469z M478.609,332.807H33.391v-53.136h445.217V332.807z"/>
	</g>
</g>
<g>
</g>
<g>
</g>
<g>
</g>
<g>
</g>
<g>
</g>
<g>
</g>
<g>
</g>
<g>
</g>
<g>
</g>
<g>
</g>
<g>
</g>
<g>
</g>
<g>
</g>
<g>
</g>
<g>
</g>
</svg>
