<?xml version="1.0" encoding="iso-8859-1"?>
<!-- Generator: Adobe Illustrator 16.0.0, SVG Export Plug-In . SVG Version: 6.00 Build 0)  -->
<!DOCTYPE svg PUBLIC "-//W3C//DTD SVG 1.1//EN" "http://www.w3.org/Graphics/SVG/1.1/DTD/svg11.dtd">
<svg version="1.1" id="Capa_1" xmlns="http://www.w3.org/2000/svg" xmlns:xlink="http://www.w3.org/1999/xlink" x="0px" y="0px"
	 width="410.758px" height="410.758px" viewBox="0 0 410.758 410.758" style="enable-background:new 0 0 410.758 410.758;"
	 xml:space="preserve">
<g>
	<path d="M350.604,60.153C311.812,21.362,260.237,0,205.379,0C150.521,0,98.945,21.362,60.154,60.153S0,150.52,0,205.378
		c0,54.858,21.363,106.437,60.154,145.227c38.791,38.791,90.366,60.153,145.225,60.153c54.859,0,106.434-21.362,145.225-60.153
		c38.791-38.79,60.154-90.366,60.154-145.227C410.758,150.521,389.395,98.944,350.604,60.153z M91.78,134.325
		c0-8.283,6.716-15,15-15c8.284,0,15,6.717,15,15c0,11.027,8.972,20,20,20c11.028,0,20-8.973,20-20c0-8.283,6.716-15,15-15
		c8.284,0,15,6.717,15,15c0,27.57-22.43,50-50,50C114.21,184.325,91.78,161.896,91.78,134.325z M298.479,235.311
		c-17.349,32.327-50.837,53.623-87.396,55.575c-1.852,0.099-3.704,0.146-5.548,0.146c-34.87,0-68.088-17.493-87.713-46.543
		c-2.001-2.963-3.865-6.051-5.545-9.178c-3.918-7.299-1.177-16.393,6.123-20.311c7.297-3.918,16.392-1.178,20.311,6.123
		c1.201,2.238,2.538,4.449,3.973,6.574c14.797,21.904,40.408,34.639,66.799,33.229c26.164-1.397,50.136-16.649,62.562-39.805
		c3.918-7.3,13.01-10.041,20.311-6.125C299.655,218.917,302.397,228.011,298.479,235.311z M268.978,184.325
		c-27.569,0-49.999-22.43-49.999-50c0-8.283,6.715-15,15-15c8.283,0,15,6.717,15,15c0,11.027,8.972,20,19.999,20
		c11.028,0,20-8.973,20-20c0-8.283,6.717-15,15-15c8.284,0,15,6.717,15,15C318.978,161.896,296.548,184.325,268.978,184.325z"/>
</g>
<g>
</g>
<g>
</g>
<g>
</g>
<g>
</g>
<g>
</g>
<g>
</g>
<g>
</g>
<g>
</g>
<g>
</g>
<g>
</g>
<g>
</g>
<g>
</g>
<g>
</g>
<g>
</g>
<g>
</g>
</svg>
