<?xml version="1.0" encoding="iso-8859-1"?>
<!-- Generator: Adobe Illustrator 19.0.0, SVG Export Plug-In . SVG Version: 6.00 Build 0)  -->
<svg version="1.1" id="Capa_1" xmlns="http://www.w3.org/2000/svg" xmlns:xlink="http://www.w3.org/1999/xlink" x="0px" y="0px"
	 viewBox="0 0 380 380" style="enable-background:new 0 0 380 380;" xml:space="preserve" fill="#ffffff">
<g id="XMLID_226_">
	<path id="XMLID_1078_" d="M365,224c-25.72,0-39.133,7.357-50.966,13.849C303.695,243.52,295.528,248,277.497,248
		c-2.71,0-5.192-0.104-7.497-0.294V74c0-27.57-22.43-50-50-50s-50,22.43-50,50h30c0-11.028,8.972-20,20-20s20,8.972,20,20v30H140V74
		c0-27.57-22.43-50-50-50S40,46.43,40,74h30c0-11.028,8.972-20,20-20s20,8.972,20,20v173.705c-2.307,0.191-4.792,0.295-7.504,0.295
		c-18.029,0-26.195-4.48-36.533-10.151C54.13,231.357,40.718,224,15,224H0v132h380V224H365z M350,326H30v-70.667
		c8.629,1.738,14.591,5.01,21.533,8.818C63.366,270.643,76.778,278,102.496,278c25.719,0,39.131-7.357,50.964-13.849
		C163.798,258.479,171.964,254,189.994,254c18.032,0,26.198,4.479,36.538,10.151C238.365,270.643,251.777,278,277.497,278
		c25.72,0,39.132-7.357,50.965-13.849c6.943-3.809,12.908-7.08,21.538-8.818V326z M189.994,224c-25.02,0-38.392,6.963-49.994,13.316
		V194h100v43.322C228.395,230.967,215.021,224,189.994,224z M240,134v30H140v-30H240z"/>
</g>
<g>
</g>
<g>
</g>
<g>
</g>
<g>
</g>
<g>
</g>
<g>
</g>
<g>
</g>
<g>
</g>
<g>
</g>
<g>
</g>
<g>
</g>
<g>
</g>
<g>
</g>
<g>
</g>
<g>
</g>
</svg>
